<?xml version="1.0" encoding="utf-8"?>
<!-- Generator: Adobe Illustrator 18.0.0, SVG Export Plug-In . SVG Version: 6.00 Build 0)  -->
<!DOCTYPE svg PUBLIC "-//W3C//DTD SVG 1.1//EN" "http://www.w3.org/Graphics/SVG/1.1/DTD/svg11.dtd">
<svg version="1.1" id="Layer_1" xmlns="http://www.w3.org/2000/svg" xmlns:xlink="http://www.w3.org/1999/xlink" x="0px" y="0px"
	 width="30px" height="30px" viewBox="0 0 30 30" enable-background="new 0 0 30 30" xml:space="preserve">
<path fill="#FFFFFF" d="M15,0C6.7,0,0,6.7,0,15s6.7,15,15,15c8.3,0,15-6.7,15-15S23.3,0,15,0z M19,24.1C17.7,24,9.4,22,5.9,12.1
	C5.2,10.1,6,6.7,8.4,6c2.4-0.8,3.6,2.6,4,4.7l-2.1,2.1c0,0-0.1,1.3,2.8,4.2c2.9,2.9,4.2,2.8,4.2,2.8l2.4-2.4
	c1.5,0.3,4.6,2.3,4.6,2.3C24,22.5,22,24.4,19,24.1z"/>
</svg>
